<svg width="102" height="20" viewBox="0 0 102 20" fill="none" xmlns="http://www.w3.org/2000/svg">
<g clip-path="url(#clip0)">
<path d="M1.78992 18.4945C0.902539 17.1681 0.478241 15.5814 0.583977 13.9848V7.46795C0.472038 5.85958 0.889922 4.25895 1.77269 2.91483C2.5709 1.87792 3.93477 1.36237 5.86427 1.36816C7.79377 1.37395 9.10021 1.82868 9.78358 2.73236C10.6168 3.85221 11.0234 5.23682 10.9292 6.63379V8.16309H7.36308V6.50346C7.35827 6.06678 7.32084 5.63108 7.2511 5.20008C7.20799 4.88807 7.06596 4.59849 6.84625 4.37461C6.71061 4.25728 6.55315 4.16841 6.38306 4.11321C6.21297 4.05801 6.03367 4.03757 5.85565 4.05311C5.6 4.01462 5.3388 4.05654 5.10761 4.17315C4.87641 4.28976 4.68645 4.47539 4.56357 4.7048C4.33709 5.31502 4.2374 5.9657 4.27071 6.61642V14.8885C4.23141 15.5435 4.34653 16.1986 4.60665 16.8001C4.73093 17.0171 4.91535 17.1927 5.13724 17.3054C5.35914 17.4181 5.60884 17.463 5.85565 17.4344C6.09818 17.469 6.34535 17.4255 6.5619 17.31C6.77846 17.1946 6.95333 17.0131 7.06159 16.7914C7.26996 16.1801 7.36059 15.5342 7.32862 14.8885V13.1507H10.8948V14.6539C10.9997 16.0715 10.6263 17.4832 9.83526 18.6596C9.07724 19.6154 7.76793 20.0846 5.90734 20.0846C4.04675 20.0846 2.59101 19.5633 1.78992 18.4945Z" fill="#111111"/>
<path d="M15.788 1.62014H19.871L23.3166 19.8674H19.9227L19.3111 15.8356H16.4513L15.7622 19.8413H12.3167L15.788 1.62014ZM18.9321 13.5417L17.8468 6.20802L16.77 13.5417H18.9321Z" fill="#111111"/>
<path d="M25.9615 4.36592H23.1707V1.62014H32.4047V4.36592H29.6483V19.8413H25.9529L25.9615 4.36592Z" fill="#111111"/>
<path d="M39.6498 1.62014H46.6528V3.51438H42.1736V9.53597H45.8087V11.3346H42.1736V18.0166H46.6959V19.8413H39.6498V1.62014Z" fill="#444444"/>
<path d="M48.7292 1.62014H50.452L55.6203 13.7241V1.62014H57.7221V19.8674H56.1113L50.943 7.4245V19.8413H48.8068L48.7292 1.62014Z" fill="#444444"/>
<path d="M60.505 1.62014H67.4995V3.51438H63.0203V9.53597H66.6898V11.3346H63.0547V18.0166H67.5511V19.8413H60.505V1.62014Z" fill="#444444"/>
<path d="M69.5758 1.62014H73.2108C74.6434 1.50386 76.0699 1.90754 77.2335 2.75842C78.0949 3.51438 78.517 4.74824 78.517 6.46001C78.517 8.77712 77.7733 10.1935 76.286 10.709L78.8701 19.8413H76.4238L74.055 11.2912H72.0997V19.8413H69.5758V1.62014ZM73.0213 9.44039C73.8512 9.52138 74.681 9.28577 75.3471 8.78002C75.6178 8.45685 75.8201 8.08124 75.9416 7.67629C76.063 7.27133 76.1011 6.8456 76.0534 6.42525C76.0707 5.83574 75.9862 5.24769 75.8036 4.68742C75.7295 4.48083 75.6152 4.29133 75.4672 4.13014C75.3192 3.96895 75.1407 3.83934 74.9422 3.74899C74.383 3.51756 73.78 3.41371 73.1764 3.44487H72.0652V9.47515L73.0213 9.44039Z" fill="#444444"/>
<path d="M81.9114 18.4945C81.0881 17.0926 80.7065 15.4714 80.8175 13.8458V7.76338C80.7878 6.58961 80.933 5.418 81.2481 4.28772C81.4969 3.43796 82.0257 2.69925 82.747 2.19363C83.6178 1.66423 84.6259 1.41002 85.6412 1.46374C86.298 1.40073 86.9605 1.48317 87.5824 1.70529C88.2043 1.92742 88.7707 2.28387 89.2418 2.74973C90.0683 3.91759 90.4588 5.34258 90.3444 6.77282V7.45057H87.9756V6.88578C87.9917 6.21025 87.9398 5.53482 87.8205 4.86989C87.7421 4.44375 87.5086 4.06256 87.1659 3.80112C86.7187 3.53492 86.2024 3.41078 85.6843 3.44487C85.1216 3.39631 84.5624 3.57086 84.1252 3.93146C83.7679 4.27339 83.5345 4.72611 83.4619 5.21746C83.3528 5.93321 83.3038 6.65698 83.3155 7.38106V14.1499C83.2471 15.1785 83.4213 16.2088 83.8237 17.1564C84.0574 17.4478 84.3541 17.6814 84.6911 17.8395C85.028 17.9975 85.3964 18.0757 85.7679 18.0682C86.1394 18.0606 86.5043 17.9675 86.8347 17.7959C87.1651 17.6243 87.4522 17.3788 87.6741 17.0782C88.0892 16.076 88.269 14.9905 88.1995 13.9066V12.6206H85.9083V10.822H90.4736V19.8413H88.9145L88.6647 17.7472C88.4673 18.4429 88.0423 19.0508 87.459 19.472C86.8757 19.8933 86.1682 20.103 85.4517 20.0672C84.778 20.1272 84.1003 20.0144 83.4814 19.7395C82.8624 19.4645 82.3224 19.0363 81.9114 18.4945Z" fill="#444444"/>
<path d="M95.7113 13.4113L91.8093 1.62014H94.1522L96.9173 10.4136L99.6393 1.62014H102.008L98.1318 13.4113V19.8413H95.72L95.7113 13.4113Z" fill="#444444"/>
</g>
<defs>
<clipPath id="clip0">
<rect width="174" height="51.6832" fill="white" transform="translate(-72 -18)"/>
</clipPath>
</defs>
</svg>
